<svg xmlns="http://www.w3.org/2000/svg" fill="none" viewBox="5.97 5.97 12.06 12.06">
    <path fill-rule="evenodd" clip-rule="evenodd"
          d="M18.0281 9.96432C18.0281 9.55011 17.6923 9.21432 17.2781 9.21432L14.7855 9.21432V6.72168C14.7855 6.30747 14.4497 5.97168 14.0355 5.97168C13.6213 5.97168 13.2855 6.30747 13.2855 6.72168V9.96432C13.2855 10.3785 13.6213 10.7143 14.0355 10.7143L17.2781 10.7143C17.6923 10.7143 18.0281 10.3785 18.0281 9.96432Z"
          fill="#FFFFFF" />
    <path fill-rule="evenodd" clip-rule="evenodd"
          d="M14.0355 18.028C14.4497 18.028 14.7855 17.6922 14.7855 17.278L14.7855 14.7854L17.2782 14.7854C17.6924 14.7854 18.0282 14.4496 18.0282 14.0354C18.0282 13.6212 17.6924 13.2854 17.2782 13.2854L14.0355 13.2854C13.6213 13.2854 13.2855 13.6212 13.2855 14.0354L13.2855 17.278C13.2855 17.6922 13.6213 18.028 14.0355 18.028Z"
          fill="#FFFFFF" />
    <path fill-rule="evenodd" clip-rule="evenodd"
          d="M9.96444 18.028C9.55023 18.028 9.21444 17.6922 9.21444 17.278V14.7854H6.7218C6.30759 14.7854 5.9718 14.4496 5.9718 14.0354C5.9718 13.6212 6.30759 13.2854 6.7218 13.2854L9.96444 13.2854C10.3787 13.2854 10.7144 13.6212 10.7144 14.0354L10.7144 17.278C10.7144 17.6922 10.3787 18.028 9.96444 18.028Z"
          fill="#FFFFFF" />
    <path fill-rule="evenodd" clip-rule="evenodd"
          d="M5.97183 9.96432C5.97183 9.55011 6.30761 9.21432 6.72183 9.21432H9.21447L9.21447 6.72168C9.21447 6.30747 9.55026 5.97168 9.96447 5.97168C10.3787 5.97168 10.7145 6.30747 10.7145 6.72168L10.7145 9.96432C10.7145 10.3785 10.3787 10.7143 9.96447 10.7143L6.72183 10.7143C6.30761 10.7143 5.97183 10.3785 5.97183 9.96432Z"
          fill="#FFFFFF" />
</svg>